<?xml version="1.0" encoding="UTF-8"?>
<!DOCTYPE svg PUBLIC "-//W3C//DTD SVG 1.1//EN" "http://www.w3.org/Graphics/SVG/1.1/DTD/svg11.dtd">
<!-- Creator: CorelDRAW 2021 (64-Bit) -->
<svg xmlns="http://www.w3.org/2000/svg" xml:space="preserve" width="35mm" height="6mm" version="1.1" style="shape-rendering:geometricPrecision; text-rendering:geometricPrecision; image-rendering:optimizeQuality; fill-rule:evenodd; clip-rule:evenodd"
viewBox="0 0 3500 600"
 xmlns:xlink="http://www.w3.org/1999/xlink"
 xmlns:xodm="http://www.corel.com/coreldraw/odm/2003">
 <defs>
  <style type="text/css">
   <![CDATA[
    .fil2 {fill:none}
    .fil1 {fill:#FF3F3A;fill-rule:nonzero}
    .fil0 {fill:white;fill-rule:nonzero}
   ]]>
  </style>
   <clipPath id="id0">
    <path d="M32.27 600.5l3439.58 0 0 -582.08 -3439.58 0 0 582.08z"/>
   </clipPath>
 </defs>
 <g id="Слой_x0020_1">
  <metadata id="CorelCorpID_0Corel-Layer"/>
  <g>
  </g>
  <g style="clip-path:url(#id0)">
   <g>
    <path class="fil0" d="M32.27 312.1c0,-161.4 87.31,-259.29 230.19,-259.29 108.47,0 195.79,66.14 211.66,164.04 2.65,10.58 -5.29,18.52 -15.87,18.52l-68.79 0c-7.94,0 -13.23,-5.29 -15.88,-13.23 -13.23,-50.27 -55.56,-82.02 -111.12,-82.02 -76.73,0 -124.36,66.15 -124.36,171.98 0,105.83 47.63,171.98 127,171.98 55.56,0 95.25,-29.1 111.13,-76.73 2.64,-7.94 7.93,-13.23 15.87,-13.23l68.79 0c10.59,0 18.52,10.58 15.88,18.52 -15.88,95.25 -100.54,158.75 -211.67,158.75 -145.52,0 -232.83,-100.54 -232.83,-259.29z"/>
    <path class="fil0" d="M675.2 558.17l-76.73 0c-7.94,0 -13.23,-5.29 -13.23,-13.23l0 -457.73c0,-10.58 10.58,-21.17 21.17,-21.17l185.2 0c108.48,0 174.63,60.86 174.63,156.11 0,55.56 -26.46,105.83 -71.44,132.29 -10.58,5.29 -13.23,18.52 -7.94,26.46l82.03 156.1c5.29,7.94 -2.65,18.53 -10.59,18.53l-87.31 0c-5.29,0 -10.58,-2.65 -13.23,-7.94l-76.73 -158.75c-2.64,-7.94 -10.58,-10.59 -18.52,-10.59l-60.85 0c-7.94,0 -13.23,5.3 -13.23,13.23l0 156.11c2.64,5.29 -5.29,10.58 -13.23,10.58zm15.87 -269.87c0,7.93 5.29,13.23 13.23,13.23l79.38 0c52.91,0 82.02,-29.11 82.02,-76.74 0,-47.62 -31.75,-76.72 -82.02,-76.72l-76.73 0c-7.94,0 -13.23,5.29 -13.23,13.22l0 127.01 -2.65 0z"/>
    <path class="fil0" d="M1394.87 558.17l-291.04 0c-10.59,0 -18.53,-7.94 -18.53,-18.52l0 -455.08c0,-10.59 7.94,-18.53 18.53,-18.53l291.04 0c10.58,0 18.52,7.94 18.52,18.53l0 50.27c0,10.58 -7.94,18.52 -18.52,18.52l-193.15 0c-7.94,0 -13.23,5.29 -13.23,13.23l0 89.95c0,7.94 5.29,13.23 13.23,13.23l179.92 0c10.58,0 18.52,7.94 18.52,18.53l0 44.98c0,10.58 -7.94,18.52 -18.52,18.52l-179.92 0c-7.94,0 -13.23,5.29 -13.23,13.23l0 100.54c0,7.93 5.29,13.23 13.23,13.23l193.15 0c10.58,0 18.52,7.93 18.52,18.52l0 50.27c0,2.64 -7.94,10.58 -18.52,10.58z"/>
    <path class="fil0" d="M1804.97 439.11l-150.81 0c-7.94,0 -13.23,5.29 -15.87,10.58l-29.11 97.9c-2.64,7.94 -7.94,10.58 -15.87,10.58l-68.79 0c-10.59,0 -18.53,-10.58 -15.88,-21.17l158.75 -460.37c2.65,-5.29 7.94,-10.59 15.88,-10.59l97.89 0c7.94,0 13.23,5.3 15.88,10.59l158.75 460.37c2.64,10.59 -5.3,21.17 -15.88,21.17l-76.73 0c-7.94,0 -13.23,-5.29 -15.87,-10.58l-29.11 -97.9c0,-5.29 -7.93,-10.58 -13.23,-10.58zm-129.64 -76.73l108.48 0c5.29,0 7.93,-5.29 7.93,-10.58l-58.2 -185.21 -5.3 0 -58.2 185.21c-2.65,5.29 0,10.58 5.29,10.58z"/>
    <path class="fil0" d="M2122.48 539.66l0 -375.71c0,-7.94 -5.29,-13.23 -13.23,-13.23l-116.42 0c-10.58,0 -21.16,-7.94 -21.16,-21.16l0 -44.98c0,-10.59 7.93,-21.17 21.16,-21.17l359.84 0c10.58,0 21.16,7.94 21.16,21.17l0 44.98c0,10.58 -7.93,21.16 -21.16,21.16l-116.42 0c-7.94,0 -13.23,5.29 -13.23,13.23l0 378.35c0,10.59 -7.94,18.53 -18.52,18.53l-66.15 0c-7.93,-2.65 -15.87,-10.59 -15.87,-21.17z"/>
    <path class="fil0" d="M2778.64 558.17l-291.04 0c-10.58,0 -18.52,-7.94 -18.52,-18.52l0 -455.08c0,-10.59 7.94,-18.53 18.52,-18.53l291.04 0c10.59,0 18.52,7.94 18.52,18.53l0 50.27c0,10.58 -7.93,18.52 -18.52,18.52l-193.15 0c-7.93,0 -13.22,5.29 -13.22,13.23l0 89.95c0,7.94 5.29,13.23 13.22,13.23l179.92 0c10.59,0 18.53,7.94 18.53,18.53l0 44.98c0,10.58 -7.94,18.52 -18.53,18.52l-179.92 0c-7.93,0 -13.22,5.29 -13.22,13.23l0 100.54c0,7.93 5.29,13.23 13.22,13.23l193.15 0c10.59,0 18.52,7.93 18.52,18.52l0 50.27c0,2.64 -7.93,10.58 -18.52,10.58z"/>
    <path class="fil1" d="M3146.41 275.06l-164.04 -214.31c-10.58,-10.58 -23.81,-15.87 -37.04,-15.87 -13.23,0 -26.46,5.29 -37.04,15.87 -18.52,21.17 -18.52,52.92 0,74.08l129.65 174.63 -129.65 174.63c-18.52,21.16 -18.52,52.91 0,74.08 10.58,10.58 23.81,15.87 37.04,15.87 13.23,0 26.46,-5.29 37.04,-15.87l164.04 -214.31c18.53,-15.88 18.53,-47.63 0,-68.8z"/>
    <path class="fil1" d="M3216.34 275.06l164.05 -214.31c10.58,-10.58 23.81,-15.87 37.04,-15.87 13.23,0 26.46,5.29 37.04,15.87 18.52,21.17 18.52,52.92 0,74.08l-129.65 174.63 129.65 174.63c18.52,21.16 18.52,52.91 0,74.08 -10.58,10.58 -23.81,15.87 -37.04,15.87 -13.23,0 -26.46,-5.29 -37.04,-15.87l-164.05 -214.31c-18.52,-15.88 -18.52,-47.63 0,-68.8z"/>
   </g>
  </g>
  <polygon class="fil2" points="32.27,600.5 3471.85,600.5 3471.85,18.42 32.27,18.42 "/>
 </g>
</svg>
