<?xml version="1.0" encoding="UTF-8"?>
<!DOCTYPE svg PUBLIC "-//W3C//DTD SVG 1.1//EN" "http://www.w3.org/Graphics/SVG/1.1/DTD/svg11.dtd">
<!-- Creator: CorelDRAW 2021 (64-Bit) -->
<svg xmlns="http://www.w3.org/2000/svg" xml:space="preserve" width="161mm" height="48mm" version="1.1" style="shape-rendering:geometricPrecision; text-rendering:geometricPrecision; image-rendering:optimizeQuality; fill-rule:evenodd; clip-rule:evenodd"
viewBox="0 0 16100 4800"
 xmlns:xlink="http://www.w3.org/1999/xlink"
 xmlns:xodm="http://www.corel.com/coreldraw/odm/2003">
 <defs>
  <style type="text/css">
   <![CDATA[
    .str0 {stroke:#1F1B20;stroke-width:20;stroke-miterlimit:22.9256}
    .fil0 {fill:#2B2A29}
   ]]>
  </style>
 </defs>
 <g id="Слой_x0020_1">
  <metadata id="CorelCorpID_0Corel-Layer"/>
  <polygon class="fil0 str0" points="6875.28,1616.3 5885.58,1542.21 4827.08,1531.62 4001.45,1589.84 3069.97,1732.74 2313.14,1912.68 1704.51,2113.8 1191.13,2346.67 704.22,2616.58 439.6,2801.82 317.87,2912.96 291.9,2968.11 287.39,3014.75 290.4,3064.4 296.42,3100.51 363.88,3371.84 447.28,3556.53 535.04,3695.73 647.01,3834.94 768.06,3959.02 904.24,4061.91 1079.76,4164.8 1312.78,4261.64 1495.9,4322.64 1777.81,4367.89 2087.56,4385.29 2098,4747.25 1910.06,4715.92 1582.91,4635.88 1374.09,4559.31 1144.38,4454.9 935.56,4322.64 751.1,4183.43 594.49,4019.85 420.47,3783.19 284.74,3522.16 176.84,3226.33 121.16,3007.07 114.2,2864.37 138.56,2714.72 201.21,2603.35 319.54,2516.34 538.8,2418.89 747.62,2335.36 1126.98,2175.26 1471.54,2036.05 1927.46,1907.28 2369.47,1785.46 2762.75,1691.49 3504.07,1541.84 4137.49,1458.31 4690.87,1406.1 5192.04,1364.34 5679.29,1336.5 5992.52,1322.58 6190.9,1291.25 6344.04,1239.05 6556.34,1138.12 6782.56,1016.3 7137.56,755.28 7520.4,501.21 7882.36,268.03 8098.14,149.7 8300,73.13 8491.42,62.69 8759.41,69.65 9190.97,76.61 9674.74,114.89 10148.07,187.98 10635.32,268.03 11373.15,442.05 12034.42,629.99 12511.23,786.6 13207.3,1037.19 13778.08,1263.41 14227.05,1461.79 14564.64,1580.12 14787.39,1642.77 15027.53,1698.45 15184.15,1722.82 15389.49,1726.3 15546.1,1719.34 15702.72,1688.01 15793.21,1660.17 15869.78,1656.69 15939.38,1688.01 16008.99,1740.22 16019.43,1788.94 16026.39,1875.95 16029.87,1938.6 15946.34,1942.08 15817.57,1976.88 15685.32,1994.29 15532.18,2004.73 15372.09,2001.25 15142.38,1994.29 14912.68,1966.44 14648.17,1924.68 14366.26,1875.95 14066.95,1830.71 13823.33,1799.39 13377.84,1747.18 12956.72,1712.38 12598.24,1698.45 12302.41,1698.45 12013.54,1715.86 11703.79,1750.66 11449.72,1806.35 11220.02,1862.03 11018.16,1931.64 10826.74,2001.25 10697.97,2067.37 10645.04,2085.21 10602.95,2087.49 10580.19,2065.87 10585.88,2030.6 10600.67,2003.29 10642.77,1979.4 10899.54,1871.07 11256.56,1749.77 11597.57,1649.07 11908.82,1582.7 12192.61,1527.77 12501.58,1479.71 12817.41,1454.53 13094.34,1433.94 13375.84,1427.07 13671.07,1424.78 13430.77,1303.48 13082.89,1143.28 12634.32,953.32 12185.75,788.54 11691.4,630.63 11295.47,520.77 10965.91,449.82 10501.31,355.99 10114.53,301.06 9615.61,243.85 9288.34,214.09 8979.37,202.65 8729.91,200.36 8581.15,223.25 8480.45,255.29 8317.95,321.66 8105.11,458.98 7912.86,603.16 7732.06,754.21 7578.72,882.38 7427.67,1019.69 7304.09,1134.13 7036.32,1431.65 "/>
 </g>
</svg>
