<?xml version="1.0" encoding="UTF-8"?>
<!DOCTYPE svg PUBLIC "-//W3C//DTD SVG 1.1//EN" "http://www.w3.org/Graphics/SVG/1.1/DTD/svg11.dtd">
<!-- Creator: CorelDRAW 2021 (64-Bit) -->
<svg xmlns="http://www.w3.org/2000/svg" xml:space="preserve" width="142mm" height="30mm" version="1.1" style="shape-rendering:geometricPrecision; text-rendering:geometricPrecision; image-rendering:optimizeQuality; fill-rule:evenodd; clip-rule:evenodd"
viewBox="0 0 14200 3000"
 xmlns:xlink="http://www.w3.org/1999/xlink"
 xmlns:xodm="http://www.corel.com/coreldraw/odm/2003">
 <defs>
  <style type="text/css">
   <![CDATA[
    .str0 {stroke:#1F1B20;stroke-width:20;stroke-miterlimit:22.9256}
    .fil0 {fill:#2B2A29}
   ]]>
  </style>
 </defs>
 <g id="Слой_x0020_1">
  <metadata id="CorelCorpID_0Corel-Layer"/>
  <polygon class="fil0 str0" points="177.92,2934.71 265.7,2943.79 362.57,2952.88 450.35,2946.82 538.13,2913.53 607.75,2865.09 641.04,2801.53 638.02,2740.99 607.75,2689.53 519.97,2577.53 435.21,2438.29 374.67,2305.11 329.27,2135.6 283.86,1953.98 286.89,1802.64 291.76,1656.17 323.34,1498.24 375.99,1321.89 441.79,1156.06 544.44,984.98 641.83,850.74 755.01,724.39 878.73,619.11 1047.18,505.93 1173.53,437.49 1315.66,379.59 1470.96,340.1 1584.14,316.41 1713.12,303.25 1847.36,300.62 1989.49,305.89 2110.57,329.58 2229.02,361.16 2321.14,392.75 2418.53,432.23 2518.55,487.5 2610.68,545.41 2684.38,603.32 2763.34,674.38 2855.47,763.88 2923.9,834.94 2992.34,927.07 3047.61,1024.46 3102.89,1121.85 3147.63,1221.87 3193.46,1366.19 3230.29,1541.13 3248.71,1679.24 3244.1,1835.77 3239.5,1978.48 3211.88,2111.99 3184.25,2240.89 3138.22,2397.42 3101.39,2489.5 3073.76,2586.17 3092.18,2664.44 3138.22,2719.68 3202.67,2751.91 3290.14,2765.72 3543.35,2765.72 4128.02,2774.93 4754.13,2788.74 5458.5,2793.34 6443.7,2784.13 7074.41,2765.72 7668.29,2738.1 8299.01,2682.85 8994.17,2604.59 9491.37,2540.14 9583.45,2517.12 9624.88,2461.87 9634.09,2383.61 9597.26,2135.01 9560.43,1817.35 9588.05,1591.77 9643.3,1338.56 9707.75,1163.62 9799.82,993.28 9924.12,813.74 10089.86,652.61 10310.84,500.69 10518.01,394.8 10706.76,334.95 10936.95,288.91 11148.72,279.71 11365.09,302.72 11586.07,353.37 11797.84,427.03 11935.96,514.5 12083.28,634.19 12184.56,726.27 12285.84,832.15 12359.5,961.06 12400.93,1053.13 12451.57,1159.02 12488.4,1264.9 12511.42,1343.17 12529.84,1458.26 12548.25,1554.94 12562.06,1683.84 12557.46,1812.75 12543.65,1964.67 12529.84,2052.14 12539.05,2121.2 12598.89,2144.22 12686.37,2148.82 12810.67,2116.59 12953.38,2033.73 13128.32,1904.82 13289.45,1771.31 13455.19,1610.18 13611.72,1435.24 13777.45,1195.85 13924.77,924.23 13980.02,758.49 14030.66,565.14 14067.49,344.16 14078.19,124.71 13994.66,128.19 13989.22,316.54 13952.39,505.29 13887.94,684.83 13791.26,868.98 13694.58,997.89 13593.3,1099.17 13432.17,1214.26 13275.64,1310.94 13132.93,1375.39 12916.55,1435.24 12824.48,1430.64 12732.4,1416.83 12658.74,1370.79 12617.31,1278.72 12571.27,1094.57 12488.4,924.23 12410.14,763.1 12327.27,629.59 12189.16,477.67 12069.46,376.38 11935.96,284.31 11788.64,206.05 11590.68,127.78 11408.47,89.46 11225.82,77.28 11037.08,77.28 10823.98,95.54 10604.79,156.43 10434.32,223.4 10251.66,302.55 10117.72,399.97 9989.86,497.38 9880.27,613.06 9764.58,740.92 9667.17,893.13 9606.28,1002.73 9545.4,1148.85 9496.69,1270.62 9466.25,1404.57 9429.72,1587.22 9417.54,1739.43 9423.63,1903.82 9429.72,2043.86 9447.98,2183.89 9466.25,2281.31 9463.09,2341.28 9428.27,2390.02 9376.06,2431.79 9292.51,2463.12 9156.74,2490.97 8899.14,2522.3 7663.33,2654.58 7329.14,2671.99 6625.95,2696.36 5950.61,2703.32 5463.25,2682.43 4874.93,2637.18 4234.4,2578 3910.65,2522.3 3701.78,2459.64 3541.65,2379.57 3440.7,2278.62 3381.52,2170.7 3343.23,2031.46 3329.3,1770.37 3308.41,1477.95 3284.05,1279.53 3235.31,1088.07 3162.21,900.08 3057.77,743.43 2953.34,597.22 2810.61,451.02 2674.84,336.14 2497.31,245.63 2250.14,155.12 2041.28,116.82 1870.7,113.34 1651.39,113.34 1484.29,151.64 1282.38,210.82 1115.29,283.92 972.56,377.91 812.43,482.35 708,572.86 561.79,722.54 446.91,861.79 370.32,962.74 286.78,1115.91 217.15,1269.09 171.9,1401.37 123.16,1578.91 95.31,1759.93 81.39,1927.02 77.91,2111.52 88.35,2240.33 98.79,2351.72 119.68,2480.53 135.88,2571.4 146.32,2933.36 "/>
 </g>
</svg>
