<?xml version="1.0" encoding="UTF-8"?>
<!DOCTYPE svg PUBLIC "-//W3C//DTD SVG 1.1//EN" "http://www.w3.org/Graphics/SVG/1.1/DTD/svg11.dtd">
<!-- Creator: CorelDRAW 2021 (64-Bit) -->
<svg xmlns="http://www.w3.org/2000/svg" xml:space="preserve" width="34mm" height="28mm" version="1.1" style="shape-rendering:geometricPrecision; text-rendering:geometricPrecision; image-rendering:optimizeQuality; fill-rule:evenodd; clip-rule:evenodd"
viewBox="0 0 3400 2800"
 xmlns:xlink="http://www.w3.org/1999/xlink"
 xmlns:xodm="http://www.corel.com/coreldraw/odm/2003">
 <defs>
  <style type="text/css">
   <![CDATA[
    .str0 {stroke:#1F1B20;stroke-width:20;stroke-miterlimit:22.9256}
    .fil0 {fill:#2B2A29}
   ]]>
  </style>
 </defs>
 <g id="Слой_x0020_1">
  <metadata id="CorelCorpID_0Corel-Layer"/>
  <polygon class="fil0 str0" points="1272.52,2139.03 1319.86,2183.31 1364.14,2209.26 1406.89,2226.06 1455.75,2248.96 1631.34,2314.62 1854.26,2380.27 2104.66,2439.82 2319.95,2474.94 2556.61,2516.16 2719.98,2531.43 2924.58,2554.33 3190.26,2571.13 2874.2,2586.4 2559.66,2581.81 2295.52,2563.49 2052.75,2545.17 1890.9,2529.9 1710.73,2505.47 1588.58,2487.15 1457.27,2467.3 1309.17,2439.82 1182.44,2416.92 1080.14,2384.85 997.69,2349.73 947.3,2310.04 921.35,2277.97 890.81,2233.69 880.12,2190.94 861.8,2003.14 840.42,1764.95 808.36,1561.88 764.08,1378.66 687.74,1137.42 626.66,972.52 530.47,763.34 422.07,563.32 304.5,372.47 199.14,239.63 98.37,114.43 191.51,181.61 322.82,300.71 451.08,428.96 567.12,569.43 664.84,696.16 773.24,862.59 838.9,996.95 906.08,1123.68 985.48,1306.9 1060.29,1519.13 1116.79,1691.66 1144.27,1798.54 1165.64,1894.73 1183.97,1989.4 1216.03,2059.63 1243.51,2108.49 "/>
 </g>
</svg>
