<?xml version="1.0" encoding="UTF-8"?>
<!DOCTYPE svg PUBLIC "-//W3C//DTD SVG 1.1//EN" "http://www.w3.org/Graphics/SVG/1.1/DTD/svg11.dtd">
<!-- Creator: CorelDRAW 2021 (64-Bit) -->
<svg xmlns="http://www.w3.org/2000/svg" xml:space="preserve" width="21mm" height="15mm" version="1.1" style="shape-rendering:geometricPrecision; text-rendering:geometricPrecision; image-rendering:optimizeQuality; fill-rule:evenodd; clip-rule:evenodd"
viewBox="0 0 2100 1500"
 xmlns:xlink="http://www.w3.org/1999/xlink"
 xmlns:xodm="http://www.corel.com/coreldraw/odm/2003">
 <defs>
  <style type="text/css">
   <![CDATA[
    .str0 {stroke:#1F1B20;stroke-width:20;stroke-miterlimit:22.9256}
    .fil0 {fill:#2B2A29}
   ]]>
  </style>
 </defs>
 <g id="Слой_x0020_1">
  <metadata id="CorelCorpID_0Corel-Layer"/>
  <polygon class="fil0 str0" points="1988.92,58.14 1964.83,69.56 1940.73,84.78 1928.04,107.61 1924.24,132.98 1893.8,240.79 1857.02,332.11 1817.7,414.55 1760.62,510.95 1706.08,584.51 1632.52,670.76 1551.35,746.86 1482.86,806.47 1380.12,876.23 1254.55,942.18 1146.74,989.11 1030.06,1030.97 924.78,1061.41 814.44,1086.78 749.75,1095.66 655.9,1108.34 543.01,1121.02 436.47,1123.56 322.32,1123.56 247.49,1119.75 175.19,1110.88 137.14,1109.61 71.19,1109.61 82.6,1194.59 95.29,1260.54 109.24,1312.54 119.39,1358.2 127,1394.99 140.95,1425.43 158.71,1450.79 206.9,1449.53 310.91,1450.79 425.06,1449.53 564.57,1440.65 677.46,1425.43 785.27,1407.67 863.9,1392.45 953.96,1367.08 1042.74,1339.18 1125.18,1310.01 1193.67,1282.1 1264.7,1247.86 1368.7,1183.17 1451.15,1128.63 1529.78,1067.75 1604.62,1000.53 1656.62,944.72 1744.13,835.64 1794.87,754.47 1849.41,661.88 1879.85,592.12 1903.94,532.51 1929.31,464.02 1950.87,392.99 1971.17,315.62 1982.58,253.47 1994,193.86 2001.61,146.93 2007.95,108.88 2005.41,79.71 "/>
 </g>
</svg>
