<?xml version="1.0" encoding="UTF-8"?>
<!DOCTYPE svg PUBLIC "-//W3C//DTD SVG 1.1//EN" "http://www.w3.org/Graphics/SVG/1.1/DTD/svg11.dtd">
<!-- Creator: CorelDRAW 2021 (64-Bit) -->
<svg xmlns="http://www.w3.org/2000/svg" xml:space="preserve" width="50mm" height="15mm" version="1.1" style="shape-rendering:geometricPrecision; text-rendering:geometricPrecision; image-rendering:optimizeQuality; fill-rule:evenodd; clip-rule:evenodd"
viewBox="0 0 5000 1500"
 xmlns:xlink="http://www.w3.org/1999/xlink"
 xmlns:xodm="http://www.corel.com/coreldraw/odm/2003">
 <defs>
  <style type="text/css">
   <![CDATA[
    .str0 {stroke:#1F1B20;stroke-width:20;stroke-miterlimit:22.9256}
    .fil0 {fill:#2B2A29}
   ]]>
  </style>
 </defs>
 <g id="Слой_x0020_1">
  <metadata id="CorelCorpID_0Corel-Layer"/>
  <path class="fil0 str0" d="M658.05 1285.56l-425.97 -45.78 264.74 -360.28 157.25 -169.19 165.21 -157.25 207.01 -161.23 193.08 -111.47 157.25 -65.68 149.29 -45.79 179.14 -37.81 155.26 -11.95 169.19 1.99 191.09 3.98 175.16 17.92 171.19 19.9 218.95 31.85 222.94 43.79 308.52 69.67 310.52 93.55 298.58 93.56 294.59 105.49 222.93 79.62 131.38 63.7 95.54 61.7 53.74 47.78 13.94 39.81 -11.94 37.82 -41.81 37.81 -103.5 51.76 -228.91 71.66 -278.67 57.72 -246.82 45.78 -292.6 47.77 -232.89 27.87 -288.62 29.86 -240.85 15.92 -380.19 17.92 -306.53 5.97 -378.2 -3.98 -296.58 -5.97 -214.98 -9.96 -348.33 -23.88 -189.1 -11.95zm-590.47 55.12l83.55 -114.89 288.95 -351.61 177.55 -201.92 198.43 -194.95 181.03 -128.81 187.99 -107.92 208.88 -94 240.21 -62.66 292.44 -20.89 288.95 10.44 431.68 38.3 396.87 55.7 351.62 69.63 341.17 83.55 306.35 100.96 285.47 104.44 278.51 114.88 167.1 100.96 94 76.59 55.7 66.14 0 62.67 -34.81 76.59 -73.11 45.25 -135.77 62.67 -201.92 62.66 -194.95 48.74 -215.85 41.78 -236.73 41.77 -278.5 31.33 -323.77 41.78 -344.65 24.37 -539.6 24.37 -410.8 6.96 -414.28 -10.44 -348.13 -6.97 -299.4 -20.88 -275.02 -24.37 -529.16 -52.22z"/>
 </g>
</svg>
