<?xml version="1.0" encoding="UTF-8"?>
<!DOCTYPE svg PUBLIC "-//W3C//DTD SVG 1.1//EN" "http://www.w3.org/Graphics/SVG/1.1/DTD/svg11.dtd">
<!-- Creator: CorelDRAW 2021 (64-Bit) -->
<svg xmlns="http://www.w3.org/2000/svg" xml:space="preserve" width="199mm" height="42mm" version="1.1" style="shape-rendering:geometricPrecision; text-rendering:geometricPrecision; image-rendering:optimizeQuality; fill-rule:evenodd; clip-rule:evenodd"
viewBox="0 0 19900 4200"
 xmlns:xlink="http://www.w3.org/1999/xlink"
 xmlns:xodm="http://www.corel.com/coreldraw/odm/2003">
 <defs>
  <style type="text/css">
   <![CDATA[
    .fil0 {fill:url(#id0)}
   ]]>
  </style>
  <linearGradient id="id0" gradientUnits="userSpaceOnUse" x1="-707.77" y1="2120.8" x2="19012.35" y2="2120.8">
   <stop offset="0" style="stop-opacity:1; stop-color:#DCEBCF"/>
   <stop offset="1" style="stop-opacity:1; stop-color:#6EF222"/>
  </linearGradient>
 </defs>
 <g id="Слой_x0020_1">
  <metadata id="CorelCorpID_0Corel-Layer"/>
  <polygon class="fil0" points="1424.99,1468.18 2720.31,1124.84 4156.08,867.34 5435.79,719.08 6434.59,656.66 7464.6,789.31 9337.34,984.39 10515.61,1062.42 11373.96,1062.42 12341.54,1031.21 13090.64,929.77 13535.42,851.74 14144.06,664.46 14838.54,414.76 15439.38,87.03 15774.91,165.06 16453.78,383.55 17663.26,953.18 18412.36,1062.42 19005.4,1124.84 19457.98,1117.04 19770.1,1054.62 19795.64,1046.32 19801.15,1070.58 19797.84,1114.7 19773.58,1302.19 19687.09,1646.72 19562.15,1909.98 19428.29,2101.85 19285.51,2244.63 17963.06,3325.22 17932.03,3320.03 17901.83,3296.54 17893.45,3256.27 17901.83,3202.59 17916.93,3098.57 17943.34,2914.94 17934.53,2809.3 17902.26,2586.3 17823.03,2322.21 17679.25,2084.53 17506.12,1902.6 17151.07,1644.38 16781.34,1503.53 16429.22,1441.91 16112.32,1427.24 15783.67,1450.71 15452.09,1529.94 15138.12,1653.18 14844.69,1823.37 14636.35,2011.17 14474.96,2201.9 14360.52,2407.3 14290.1,2612.7 14249.02,2815.17 14231.41,3055.79 14249.02,3334.55 14295.97,3542.89 14304.77,3598.64 14304.77,3639.72 14284.23,3680.8 14254.88,3701.34 14061.22,3742.42 13535.97,3809.91 12717.3,3889.14 11716.69,3953.69 10918.55,3983.04 10220.18,3997.71 9618.64,4003.58 8899.73,4009.45 8039.98,3997.71 7321.06,3988.91 6792.89,3977.17 6731.26,3977.17 6223.63,3968.36 6314.59,3437.25 6358.6,3240.65 6387.95,3061.66 6387.95,2891.47 6364.47,2715.41 6314.59,2512.94 6241.23,2357.42 6162,2219.5 5654.37,1676.65 5446.03,1612.1 5173.14,1512.33 4909.05,1450.71 4539.32,1412.56 4234.15,1421.37 3934.85,1471.25 3653.15,1553.41 3403.73,1667.85 3189.53,1805.76 3019.34,1940.74 2834.47,2134.41 2687.76,2357.42 2582.12,2565.76 2526.37,2768.22 2502.9,3000.04 2508.76,3196.64 2552.78,3396.17 2617.33,3598.64 2717.1,3792.31 2808.07,3927.28 2837.55,3983.87 2846.31,4029.1 2844.85,4074.33 2828.8,4106.42 2796.7,4139.98 2768.98,4154.57 2264.45,4138.43 2031.6,4118.19 1798.74,4074.32 1518.65,3993.32 1279.04,3898.83 1066.44,3787.47 880.83,3662.6 718.84,3520.87 546.74,3331.88 425.25,3169.9 334.13,3004.54 259.89,2839.18 135.02,2508.46 87.78,2346.48 81.03,2268.86 84.4,2211.49 91.15,2096.75 222.77,1901.02 485.99,1722.16 766.09,1590.55 1086.69,1523.05 1130.56,1556.8 1258.79,1523.05 "/>
 </g>
</svg>
